<?xml version="1.0" encoding="UTF-8" standalone="no" ?>
<!DOCTYPE svg PUBLIC "-//W3C//DTD SVG 1.1//EN" "http://www.w3.org/Graphics/SVG/1.1/DTD/svg11.dtd">
<svg xmlns="http://www.w3.org/2000/svg" xmlns:xlink="http://www.w3.org/1999/xlink" version="1.1" width="24px" height="24px" viewBox="0 0 1080 1080" xml:space="preserve">
<desc>Created with Fabric.js 5.2.4</desc>
<defs>
</defs>
<g transform="matrix(1 0 0 1 540 540)" id="0e3f8f3e-ff26-4c73-965f-2b0be6a2164a"  >
<rect style="stroke: none; stroke-width: 1; stroke-dasharray: none; stroke-linecap: butt; stroke-dashoffset: 0; stroke-linejoin: miter; stroke-miterlimit: 4; fill: rgb(255,255,255); fill-rule: nonzero; opacity: 1; visibility: hidden;" vector-effect="non-scaling-stroke"  x="-540" y="-540" rx="0" ry="0" width="1080" height="1080" />
</g>
<g transform="matrix(1 0 0 1 540 540)" id="fdb068c5-3648-4452-b5a4-25fe1bd2eb33"  >
</g>
<g transform="matrix(0.84 0 0 0.84 315.75 320.53)" id="a7d7a757-eebd-4aa4-9ff2-abfe0b456bae"  >
<path style="stroke: rgb(0,0,0); stroke-width: 0; stroke-dasharray: none; stroke-linecap: butt; stroke-dashoffset: 0; stroke-linejoin: miter; stroke-miterlimit: 4; fill: rgb(227,227,227); fill-rule: nonzero; opacity: 1;" vector-effect="non-scaling-stroke"  transform=" translate(-480, 480)" d="M 240 -160 Q 207 -160 183.5 -183.5 Q 160 -207 160 -240 Q 160 -273 183.5 -296.5 Q 207 -320 240 -320 Q 273 -320 296.5 -296.5 Q 320 -273 320 -240 Q 320 -207 296.5 -183.5 Q 273 -160 240 -160 Z M 560 -160 Q 527 -160 503.5 -183.5 Q 480 -207 480 -240 Q 480 -273 503.5 -296.5 Q 527 -320 560 -320 Q 593 -320 616.5 -296.5 Q 640 -273 640 -240 Q 640 -207 616.5 -183.5 Q 593 -160 560 -160 Z M 400 -320 Q 367 -320 343.5 -343.5 Q 320 -367 320 -400 Q 320 -433 343.5 -456.5 Q 367 -480 400 -480 Q 433 -480 456.5 -456.5 Q 480 -433 480 -400 Q 480 -367 456.5 -343.5 Q 433 -320 400 -320 Z M 720 -320 Q 687 -320 663.5 -343.5 Q 640 -367 640 -400 Q 640 -433 663.5 -456.5 Q 687 -480 720 -480 Q 753 -480 776.5 -456.5 Q 800 -433 800 -400 Q 800 -367 776.5 -343.5 Q 753 -320 720 -320 Z M 240 -480 Q 207 -480 183.5 -503.5 Q 160 -527 160 -560 Q 160 -593 183.5 -616.5 Q 207 -640 240 -640 Q 273 -640 296.5 -616.5 Q 320 -593 320 -560 Q 320 -527 296.5 -503.5 Q 273 -480 240 -480 Z M 560 -480 Q 527 -480 503.5 -503.5 Q 480 -527 480 -560 Q 480 -593 503.5 -616.5 Q 527 -640 560 -640 Q 593 -640 616.5 -616.5 Q 640 -593 640 -560 Q 640 -527 616.5 -503.5 Q 593 -480 560 -480 Z M 400 -640 Q 367 -640 343.5 -663.5 Q 320 -687 320 -720 Q 320 -753 343.5 -776.5 Q 367 -800 400 -800 Q 433 -800 456.5 -776.5 Q 480 -753 480 -720 Q 480 -687 456.5 -663.5 Q 433 -640 400 -640 Z M 720 -640 Q 687 -640 663.5 -663.5 Q 640 -687 640 -720 Q 640 -753 663.5 -776.5 Q 687 -800 720 -800 Q 753 -800 776.5 -776.5 Q 800 -753 800 -720 Q 800 -687 776.5 -663.5 Q 753 -640 720 -640 Z" stroke-linecap="round" />
</g>
<g transform="matrix(1.16 0 0 1.16 605.07 637.92)" id="c65a7ef3-05c6-41ee-8898-8ed4bde8c7a1"  >
<path style="stroke: rgb(0,0,0); stroke-width: 0; stroke-dasharray: none; stroke-linecap: butt; stroke-dashoffset: 0; stroke-linejoin: miter; stroke-miterlimit: 4; fill: rgb(227,227,227); fill-rule: nonzero; opacity: 1;" vector-effect="non-scaling-stroke"  transform=" translate(-460, 479.83)" d="M 240 -120 Q 195 -120 151 -142 Q 107 -164 80 -200 Q 106 -200 133 -220.5 Q 160 -241 160 -280 Q 160 -330 195 -365 Q 230 -400 280 -400 Q 330 -400 365 -365 Q 400 -330 400 -280 Q 400 -214 353 -167 Q 306 -120 240 -120 Z M 240 -200 Q 273 -200 296.5 -223.5 Q 320 -247 320 -280 Q 320 -297 308.5 -308.5 Q 297 -320 280 -320 Q 263 -320 251.5 -308.5 Q 240 -297 240 -280 Q 240 -257 234.5 -238 Q 229 -219 220 -202 Q 225 -200 230 -200 L 240 -200 Z M 470 -360 L 360 -470 L 718 -828 Q 729 -839 745.5 -839.5 Q 762 -840 774 -828 L 828 -774 Q 840 -762 840 -746 Q 840 -730 828 -718 L 470 -360 Z M 280 -280 Z" stroke-linecap="round" />
</g>
</svg>
